# This file uses centimeters as units for non-parametric coordinates.

mtllib Oat_Cake.mtl
g default
v 4.625927 0.007502 -1.916119
v 3.540531 0.007502 -3.540525
v 1.916124 0.007502 -4.625922
v -1.916119 0.007502 -4.625927
v -3.540525 0.007502 -3.540531
v -4.625922 0.007502 -1.916124
v -5.007065 0.007502 0.000000
v -4.625927 0.007502 1.916119
v -3.540531 0.007502 3.540531
v -1.916124 0.007502 4.625922
v 1.916119 0.007502 4.625927
v 3.540531 0.007502 3.540531
v 4.625927 0.007502 1.916119
v 5.007065 0.007502 0.000000
v 4.625927 0.244481 -1.916119
v 4.560555 0.412018 -1.889040
v 4.402742 0.481416 -1.823673
v 3.540531 0.244481 -3.540525
v 3.490500 0.412018 -3.490495
v 3.369715 0.481416 -3.369710
v 1.916124 0.244481 -4.625922
v 1.889045 0.412018 -4.560555
v 1.823678 0.481416 -4.402737
v -1.916119 0.244481 -4.625927
v -1.889040 0.412018 -4.560555
v -1.823673 0.481416 -4.402737
v -3.540525 0.244481 -3.540531
v -3.490495 0.412018 -3.490500
v -3.369710 0.481416 -3.369710
v -4.625922 0.244481 -1.916124
v -4.560555 0.412018 -1.889045
v -4.402737 0.481416 -1.823678
v -5.007065 0.244481 0.000000
v -4.936310 0.412018 0.000000
v -4.765489 0.481416 0.000000
v -4.625927 0.244481 1.916119
v -4.560555 0.412018 1.889040
v -4.402737 0.481416 1.823673
v -3.540531 0.244481 3.540531
v -3.490500 0.412018 3.490495
v -3.369710 0.481416 3.369710
v -1.916124 0.244481 4.625922
v -1.889045 0.412018 4.560555
v -1.823673 0.481416 4.402737
v 1.916119 0.244481 4.625927
v 1.889045 0.412018 4.560555
v 1.823673 0.481416 4.402737
v 3.540531 0.244481 3.540531
v 3.490495 0.412018 3.490500
v 3.369710 0.481416 3.369710
v 4.625927 0.244481 1.916119
v 4.560555 0.412018 1.889045
v 4.402737 0.481416 1.823673
v 5.007065 0.244481 0.000000
v 4.936310 0.412018 0.000000
v 4.765489 0.481416 0.000000
v 4.665663 0.481416 0.891468
v 4.832904 0.412018 0.923418
v 4.902177 0.244481 0.936657
v 4.902177 0.007502 0.936657
v -4.902177 0.007502 0.936657
v -4.902177 0.244481 0.936657
v -4.832904 0.412018 0.923418
v -4.665663 0.481416 0.891463
v 4.819836 0.412018 -0.992210
v 4.888923 0.244481 -1.006435
v 4.888923 0.007502 -1.006435
v -4.888918 0.007502 -1.006435
v -4.888918 0.244481 -1.006435
v -4.819836 0.412018 -0.992215
v -4.653046 0.481416 -0.957882
v 4.653046 0.481416 -0.957877
v 3.946283 0.481416 2.604906
v 4.087738 0.412018 2.698282
v 4.146330 0.244481 2.736957
v 4.146330 0.007502 2.736957
v -4.146330 0.007502 2.736957
v -4.146330 0.244481 2.736957
v -4.087738 0.412018 2.698277
v -3.946283 0.481416 2.604906
v 3.984066 0.481416 -2.585388
v 4.126878 0.412018 -2.678064
v 4.186031 0.244481 -2.716448
v 4.186031 0.007502 -2.716448
v -4.186027 0.007502 -2.716453
v -4.186027 0.244481 -2.716453
v -4.126873 0.412018 -2.678069
v -3.984066 0.481416 -2.585393
v 2.680983 0.481416 -3.869360
v 2.777078 0.412018 -4.008055
v 2.816885 0.244481 -4.065506
v 2.816885 0.007502 -4.065506
v -2.816885 0.007502 -4.065511
v -2.816885 0.244481 -4.065511
v -2.777078 0.412018 -4.008060
v -2.680978 0.481416 -3.869360
v -2.648052 0.481416 3.919000
v -2.742970 0.412018 4.059473
v -2.782286 0.244481 4.117660
v -2.782286 0.007502 4.117660
v 2.782286 0.007502 4.117660
v 2.782286 0.244481 4.117660
v 2.742970 0.412018 4.059473
v 2.648052 0.481416 3.919000
v 0.547052 0.412018 -4.827497
v 0.000000 0.412018 -4.881373
v -0.547047 0.412018 -4.827497
v -0.547047 0.481416 -4.656675
v 0.547052 0.481416 -4.656675
v 0.000000 0.481416 -4.710557
v -0.547047 0.244481 -4.898252
v 0.000005 0.244481 -4.952127
v 0.547052 0.244481 -4.898252
v -0.547047 0.412018 4.827497
v 0.000000 0.412018 4.881373
v 0.547047 0.412018 4.827497
v 0.547047 0.481416 4.656675
v -0.547047 0.481416 4.656675
v 0.000000 0.481416 4.710557
v 0.547047 0.244481 4.898252
v 0.000000 0.244481 4.952133
v -0.547047 0.244481 4.898252
v 0.000005 0.007502 -4.952127
v 0.547052 0.007502 -4.898252
v -0.547047 0.007502 -4.898252
v 0.000000 0.007502 4.952133
v -0.547047 0.007502 4.898252
v 0.547047 0.007502 4.898252
vt 0.291784 0.410334
vt 0.352530 0.414618
vt 0.350147 0.427220
vt 0.292015 0.423215
vt 0.402292 0.430830
vt 0.458679 0.456981
vt 0.451428 0.467494
vt 0.397483 0.442852
vt 0.584478 0.638877
vt 0.589514 0.700834
vt 0.576412 0.701112
vt 0.572215 0.641978
vt 0.586904 0.753090
vt 0.569835 0.811549
vt 0.557711 0.806751
vt 0.574416 0.750935
vt 0.545384 0.859073
vt 0.510994 0.902353
vt 0.501620 0.893305
vt 0.534709 0.852178
vt 0.466323 0.940710
vt 0.418189 0.967426
vt 0.413001 0.955470
vt 0.459064 0.930276
vt 0.361901 0.985815
vt 0.306784 0.991216
vt 0.306584 0.978158
vt 0.359272 0.973396
vt 0.195067 0.971280
vt 0.141983 0.945419
vt 0.149343 0.934958
vt 0.199869 0.959291
vt 0.016214 0.763565
vt 0.010319 0.704783
vt 0.023398 0.704504
vt 0.028460 0.760355
vt 0.031248 0.593269
vt 0.055501 0.543524
vt 0.066326 0.550411
vt 0.043266 0.598004
vt 0.092660 0.497459
vt 0.134433 0.461617
vt 0.141742 0.472187
vt 0.101933 0.506414
vt 0.186169 0.433464
vt 0.238685 0.416263
vt 0.241431 0.428821
vt 0.191297 0.445287
vt 0.082905 0.561103
vt 0.355092 0.954105
vt 0.306240 0.958103
vt 0.061912 0.605401
vt 0.243511 0.438405
vt 0.195236 0.454437
vt 0.245620 0.448163
vt 0.199178 0.463661
vt 0.292514 0.443224
vt 0.292236 0.433187
vt 0.348366 0.436805
vt 0.346618 0.446549
vt 0.390159 0.461689
vt 0.393795 0.452234
vt 0.445944 0.475580
vt 0.440566 0.483828
vt 0.553127 0.646366
vt 0.562751 0.644239
vt 0.566345 0.701275
vt 0.556229 0.701368
vt 0.555058 0.747442
vt 0.564806 0.749233
vt 0.548463 0.803044
vt 0.539173 0.799260
vt 0.518059 0.841449
vt 0.526459 0.846858
vt 0.494443 0.886408
vt 0.487196 0.879483
vt 0.447809 0.913983
vt 0.453475 0.922207
vt 0.409016 0.946345
vt 0.404977 0.937171
vt 0.357217 0.963825
vt 0.306420 0.968158
vt 0.207309 0.940590
vt 0.203590 0.949974
vt 0.154869 0.926880
vt 0.160246 0.918598
vt 0.047592 0.755955
vt 0.037934 0.758058
vt 0.033422 0.704301
vt 0.043506 0.704119
vt 0.052567 0.601685
vt 0.074558 0.555697
vt 0.116250 0.520374
vt 0.109079 0.513360
vt 0.147328 0.480249
vt 0.153030 0.488439
vt 0.846606 0.050475
vt 0.674358 0.562186
vt 0.623630 0.551204
vt 0.799563 0.028545
vt 0.892873 0.082101
vt 0.927289 0.121553
vt 0.781599 0.554365
vt 0.730332 0.564975
vt 0.877625 0.507430
vt 0.975387 0.217003
vt 0.986697 0.271139
vt 0.919370 0.471152
vt 0.744959 0.017030
vt 0.573177 0.527357
vt 0.530319 0.497648
vt 0.692861 0.014775
vt 0.643361 0.023673
vt 0.496277 0.460629
vt 0.464607 0.412461
vt 0.589010 0.042885
vt 0.548897 0.071431
vt 0.449920 0.365469
vt 0.436496 0.308611
vt 0.503823 0.108598
vt 0.045843 0.655018
vt 0.036080 0.653269
vt 0.026471 0.651529
vt 0.014004 0.649235
vt 0.958586 0.167289
vt 0.834182 0.536865
vt 0.248250 0.987522
vt 0.250524 0.975053
vt 0.252280 0.965447
vt 0.254075 0.955693
vt 0.533511 0.575821
vt 0.518809 0.549850
vt 0.526817 0.544294
vt 0.542223 0.570856
vt 0.499660 0.526971
vt 0.507319 0.520594
vt 0.067252 0.826543
vt 0.081963 0.852523
vt 0.073956 0.858078
vt 0.058544 0.831509
vt 0.101120 0.875409
vt 0.093460 0.881782
vt 0.516763 0.511711
vt 0.553940 0.565078
vt 0.084017 0.890659
vt 0.046833 0.837290
vt 0.491377 0.532811
vt 0.525138 0.581540
vt 0.109402 0.869574
vt 0.075623 0.820824
vt 0.090121 0.846876
vt 0.446335 0.232371
vt 0.465557 0.175268
vt 0.970059 0.376876
vt 0.957636 0.404481
vt 0.976857 0.347378
vt 0.510651 0.555499
vt 0.537339 0.536941
vt 0.063435 0.865431
vt 0.453134 0.202873
vn 0.029632 -0.999365 -0.019800
vn 0.030728 -0.999041 -0.031185
vn 0.692046 0.168218 -0.701979
vn 0.819539 0.169049 -0.547520
vn 0.040839 -0.997295 -0.061120
vn 0.043994 -0.991809 -0.119916
vn 0.339969 0.166828 -0.925521
vn 0.547651 0.168675 -0.819529
vn -0.043994 -0.991809 -0.119916
vn -0.040839 -0.997295 -0.061120
vn -0.547650 0.168676 -0.819529
vn -0.339968 0.166828 -0.925522
vn -0.030728 -0.999041 -0.031185
vn -0.029632 -0.999365 -0.019800
vn -0.819538 0.169049 -0.547521
vn -0.692046 0.168218 -0.701980
vn -0.027000 -0.999574 -0.011098
vn -0.025494 -0.999662 -0.005071
vn -0.966658 0.169078 -0.192314
vn -0.911622 0.168895 -0.374726
vn -0.025801 -0.999667 -0.000176
vn -0.025733 -0.999656 0.005119
vn -0.966673 0.169072 0.192246
vn -0.985627 0.168801 -0.006694
vn -0.027089 -0.999568 0.011373
vn -0.029011 -0.999391 0.019384
vn -0.819538 0.168895 0.547569
vn -0.908896 0.168497 0.381467
vn -0.038915 -0.997544 0.058240
vn -0.045208 -0.990554 0.129455
vn -0.325611 0.166965 0.930645
vn -0.547606 0.168907 0.819511
vn 0.045208 -0.990554 0.129455
vn 0.038915 -0.997544 0.058240
vn 0.547606 0.168908 0.819511
vn 0.325611 0.166966 0.930645
vn 0.029011 -0.999391 0.019384
vn 0.027089 -0.999568 0.011373
vn 0.908896 0.168498 0.381467
vn 0.819537 0.168896 0.547570
vn 0.025733 -0.999656 0.005119
vn 0.025801 -0.999667 -0.000176
vn 0.985627 0.168801 -0.006694
vn 0.966673 0.169072 0.192246
vn 0.025494 -0.999662 -0.005071
vn 0.027000 -0.999574 -0.011098
vn 0.911623 0.168895 -0.374725
vn 0.966658 0.169079 -0.192313
vn 0.008902 0.999953 0.003744
vn -0.008902 0.999953 0.003744
vn -0.009152 0.999940 0.006117
vn 0.009152 0.999940 0.006117
vn 0.663697 0.696478 -0.272808
vn 0.701407 0.698973 -0.139517
vn 0.008800 0.999955 -0.003617
vn 0.008203 0.999965 -0.001630
vn 0.009458 0.999935 -0.006325
vn 0.594618 0.698978 -0.397314
vn 0.506037 0.692933 -0.513585
vn 0.010034 0.999898 -0.010212
vn 0.012384 0.999751 -0.018545
vn 0.395966 0.701446 -0.592608
vn 0.250943 0.685945 -0.683013
vn 0.013747 0.999202 -0.037515
vn -0.013747 0.999202 -0.037515
vn -0.250943 0.685945 -0.683013
vn -0.395965 0.701447 -0.592608
vn -0.012384 0.999751 -0.018545
vn -0.010034 0.999898 -0.010212
vn -0.506036 0.692934 -0.513586
vn -0.594617 0.698979 -0.397314
vn -0.009458 0.999935 -0.006325
vn -0.008800 0.999955 -0.003617
vn -0.663696 0.696479 -0.272808
vn -0.701407 0.698973 -0.139518
vn -0.008203 0.999965 -0.001630
vn -0.008448 0.999964 -0.000059
vn -0.718030 0.695995 -0.004901
vn -0.701381 0.699000 0.139515
vn -0.008276 0.999964 0.001648
vn -0.663482 0.694402 0.278565
vn -0.593526 0.700321 0.396582
vn -0.011979 0.999767 0.017932
vn -0.396621 0.700248 0.593587
vn -0.239845 0.687057 0.685877
vn -0.013924 0.999100 0.040064
vn 0.013924 0.999100 0.040064
vn 0.239845 0.687057 0.685877
vn 0.396621 0.700248 0.593587
vn 0.011979 0.999767 0.017932
vn 0.593525 0.700322 0.396582
vn 0.663481 0.694402 0.278565
vn 0.008276 0.999964 0.001648
vn 0.701380 0.699000 0.139515
vn 0.718030 0.695995 -0.004900
vn 0.008448 0.999964 -0.000059
vn 0.010438 0.999892 0.010309
vn 0.512849 0.693025 0.506659
vn 0.701224 0.168235 0.692807
vn 0.031956 -0.998991 0.031571
vn -0.031956 -0.998991 0.031571
vn -0.701224 0.168235 0.692807
vn -0.512849 0.693025 0.506658
vn -0.010438 0.999892 0.010309
vn -0.156046 0.384289 -0.909929
vn 0.000000 0.389055 -0.921215
vn 0.000001 0.169894 -0.985462
vn -0.164815 0.166572 -0.972157
vn 0.156047 0.384289 -0.909929
vn 0.164816 0.166572 -0.972157
vn 0.156046 0.384289 0.909929
vn 0.000000 0.389055 0.921215
vn 0.000000 0.169894 0.985462
vn 0.164816 0.166572 0.972157
vn -0.156047 0.384289 0.909929
vn -0.164816 0.166572 0.972157
vn 0.167828 0.000000 -0.985816
vn -0.167827 0.000000 -0.985816
vn -0.167828 0.000000 0.985816
vn 0.167828 0.000000 0.985816
vn 0.016062 0.995537 -0.092990
vn -0.016062 0.995537 -0.092990
vn -0.016062 0.995537 0.092990
vn 0.016062 0.995537 0.092990
vn 0.000000 0.953112 0.302618
vn 0.000000 -1.000000 0.000000
vn 0.000000 0.953112 -0.302618
vn 0.000001 0.000000 -1.000000
s 1
g Oat_Cake:Oat_Cake
usemtl blinn1SG
f 84/1/1 2/2/2 18/3/3 83/4/4
f 92/5/5 3/6/6 21/7/7 91/8/8
f 4/9/9 93/10/10 94/11/11 24/12/12
f 5/13/13 85/14/14 86/15/15 27/16/16
f 6/17/17 68/18/18 69/19/19 30/20/20
f 7/21/21 61/22/22 62/23/23 33/24/24
f 8/25/25 77/26/26 78/27/27 36/28/28
f 100/29/29 10/30/30 42/31/31 99/32/32
f 11/33/33 101/34/34 102/35/35 45/36/36
f 76/37/37 13/38/38 51/39/39 75/40/40
f 60/41/41 14/42/42 54/43/43 59/44/44
f 67/45/45 1/46/46 15/47/47 66/48/48
f 53/49/49 38/50/50 80/51/51 73/52/52
f 15/47/47 16/53/53 65/54/54 66/48/48
f 16/53/53 17/55/55 72/56/56 65/54/54
f 81/57/57 82/58/58 19/59/59 20/60/60
f 82/58/58 83/4/4 18/3/3 19/59/59
f 89/61/61 90/62/62 22/63/63 23/64/64
f 90/62/62 91/8/8 21/7/7 22/63/63
f 26/65/65 25/66/66 95/67/67 96/68/68
f 25/66/66 24/12/12 94/11/11 95/67/67
f 29/69/69 28/70/70 87/71/71 88/72/72
f 28/70/70 27/16/16 86/15/15 87/71/71
f 32/73/73 31/74/74 70/75/75 71/76/76
f 31/74/74 30/20/20 69/19/19 70/75/75
f 35/77/77 34/78/78 63/79/79 64/80/80
f 34/78/78 33/24/24 62/23/23 63/79/79
f 38/50/50 37/81/81 79/82/82 80/51/51
f 37/81/81 36/28/28 78/27/27 79/82/82
f 97/83/83 98/84/84 43/85/85 44/86/86
f 98/84/84 99/32/32 42/31/31 43/85/85
f 47/87/87 46/88/88 103/89/89 104/90/90
f 46/88/88 45/36/36 102/35/35 103/89/89
f 73/52/52 74/91/91 52/92/92 53/49/49
f 74/91/91 75/40/40 51/39/39 52/92/92
f 57/93/93 58/94/94 55/95/95 56/96/96
f 58/94/94 59/44/44 54/43/43 55/95/95
f 88/72/72 81/57/57 20/60/60 29/69/69
f 72/56/56 17/55/55 32/73/73 71/76/76
f 96/68/68 89/61/61 23/64/64 26/65/65
f 56/96/96 35/77/77 64/80/80 57/93/93
f 104/90/90 97/83/83 44/86/86 47/87/87
f 60/97/41 61/98/22 7/99/21 14/100/42
f 13/101/38 76/102/37 77/103/26 8/104/25
f 100/105/29 101/106/34 11/107/33 10/108/30
f 67/109/45 68/110/18 6/111/17 1/112/46
f 84/113/1 85/114/14 5/115/13 2/116/2
f 92/117/5 93/118/10 4/119/9 3/120/6
f 53/49/49 52/92/92 58/94/94 57/93/93
f 52/92/92 51/39/39 59/44/44 58/94/94
f 13/38/38 60/41/41 59/44/44 51/39/39
f 13/101/38 8/104/25 61/98/22 60/97/41
f 62/23/23 61/22/22 8/25/25 36/28/28
f 63/79/79 62/23/23 36/28/28 37/81/81
f 64/80/80 63/79/79 37/81/81 38/50/50
f 57/93/93 64/80/80 38/50/50 53/49/49
f 66/48/48 65/54/54 55/95/95 54/43/43
f 14/42/42 67/45/45 66/48/48 54/43/43
f 14/100/42 7/99/21 68/110/18 67/109/45
f 69/19/19 68/18/18 7/21/21 33/24/24
f 70/75/75 69/19/19 33/24/24 34/78/78
f 71/76/76 70/75/75 34/78/78 35/77/77
f 56/96/96 72/56/56 71/76/76 35/77/77
f 65/54/54 72/56/56 56/96/96 55/95/95
f 50/121/97 49/122/98 74/91/91 73/52/52
f 49/122/98 48/123/99 75/40/40 74/91/91
f 12/124/100 76/37/37 75/40/40 48/123/99
f 77/103/26 76/102/37 12/125/100 9/126/101
f 78/27/27 77/26/26 9/127/101 39/128/102
f 79/82/82 78/27/27 39/128/102 40/129/103
f 80/51/51 79/82/82 40/129/103 41/130/104
f 73/52/52 80/51/51 41/130/104 50/121/97
f 17/55/55 16/53/53 82/58/58 81/57/57
f 16/53/53 15/47/47 83/4/4 82/58/58
f 1/46/46 84/1/1 83/4/4 15/47/47
f 1/112/46 6/111/17 85/114/14 84/113/1
f 86/15/15 85/14/14 6/17/17 30/20/20
f 87/71/71 86/15/15 30/20/20 31/74/74
f 88/72/72 87/71/71 31/74/74 32/73/73
f 32/73/73 17/55/55 81/57/57 88/72/72
f 20/60/60 19/59/59 90/62/62 89/61/61
f 19/59/59 18/3/3 91/8/8 90/62/62
f 2/2/2 92/5/5 91/8/8 18/3/3
f 2/116/2 5/115/13 93/118/10 92/117/5
f 94/11/11 93/10/10 5/13/13 27/16/16
f 95/67/67 94/11/11 27/16/16 28/70/70
f 96/68/68 95/67/67 28/70/70 29/69/69
f 29/69/69 20/60/60 89/61/61 96/68/68
f 41/130/104 40/129/103 98/84/84 97/83/83
f 40/129/103 39/128/102 99/32/32 98/84/84
f 9/127/101 100/29/29 99/32/32 39/128/102
f 9/126/101 12/125/100 101/106/34 100/105/29
f 102/35/35 101/34/34 12/124/100 48/123/99
f 103/89/89 102/35/35 48/123/99 49/122/98
f 104/90/90 103/89/89 49/122/98 50/121/97
f 50/121/97 41/130/104 97/83/83 104/90/90
f 107/131/105 106/132/106 112/133/107 111/134/108
f 106/132/106 105/135/109 113/136/110 112/133/107
f 116/137/111 115/138/112 121/139/113 120/140/114
f 115/138/112 114/141/115 122/142/116 121/139/113
f 3/6/6 124/143/117 113/136/110 21/7/7
f 111/134/108 125/144/118 4/9/9 24/12/12
f 10/30/30 127/145/119 122/142/116 42/31/31
f 120/140/114 128/146/120 11/33/33 45/36/36
f 23/64/64 22/63/63 105/135/109 109/147/121
f 22/63/63 21/7/7 113/136/110 105/135/109
f 108/148/122 107/131/105 25/66/66 26/65/65
f 107/131/105 111/134/108 24/12/12 25/66/66
f 44/86/86 43/85/85 114/141/115 118/149/123
f 43/85/85 42/31/31 122/142/116 114/141/115
f 117/150/124 116/137/111 46/88/88 47/87/87
f 116/137/111 120/140/114 45/36/36 46/88/88
f 108/148/122 26/65/65 23/64/64 109/147/121
f 117/150/124 118/149/123 119/151/125
f 125/152/118 124/153/117 3/120/6 4/119/9
f 126/154/126 127/155/119 128/156/120
f 105/135/109 106/132/106 110/157/127 109/147/121
f 106/132/106 107/131/105 108/148/122 110/157/127
f 111/134/108 112/133/107 123/158/128 125/144/118
f 112/133/107 113/136/110 124/143/117 123/158/128
f 114/141/115 115/138/112 119/151/125 118/149/123
f 115/138/112 116/137/111 117/150/124 119/151/125
f 120/140/114 121/139/113 126/159/126 128/146/120
f 121/139/113 122/142/116 127/145/119 126/159/126
f 108/148/122 109/147/121 110/157/127
f 117/150/124 47/87/87 44/86/86 118/149/123
f 128/156/120 127/155/119 10/108/30 11/107/33
f 123/160/128 124/153/117 125/152/118
